<?xml version="1.0" encoding="UTF-8" standalone="no"?><!DOCTYPE svg PUBLIC "-//W3C//DTD SVG 1.1//EN" "http://www.w3.org/Graphics/SVG/1.1/DTD/svg11.dtd"><svg width="100%" height="100%" viewBox="0 0 2250 2250" version="1.1" xmlns="http://www.w3.org/2000/svg" xmlns:xlink="http://www.w3.org/1999/xlink" xml:space="preserve" xmlns:serif="http://www.serif.com/" style="fill-rule:evenodd;clip-rule:evenodd;stroke-linejoin:round;stroke-miterlimit:2;"><rect x="-79.059" y="-90.386" width="2403.47" height="2415.64"/><g><path d="M1326.22,165.395l66.65,-127.932l107.235,162.976c55.201,21.307 106.63,52.259 154.285,92.855c33.436,-31.578 164.391,-111.452 197.826,-117.024c5.573,7.43 10.681,33.9 15.325,79.409c4.644,45.509 8.768,98.563 6.966,176.929c-4.322,187.944 -111.452,378.935 -111.452,378.935c-14.86,-178.322 -62.691,-312.528 -143.493,-402.618c-27.505,-30.667 -57.755,-56.114 -90.76,-76.349l255.83,1178.01l0.714,0.314l-0.379,1.226l101.947,469.429c13.807,61.541 24.864,140.239 202.108,230.981l-792.394,0c139.794,-33.748 273.519,-74.723 272.686,-182.86c-0.133,-17.284 -0.534,-22.457 -1.604,-35.289c-1.069,-12.832 -3.743,-33.15 -8.02,-60.953l-7.749,-43.327c-20.292,18.429 -41.402,35.519 -63.335,51.274c-65.942,47.366 -137.457,83.124 -214.544,107.272c-77.087,24.147 -155.567,36.221 -235.441,36.221c-105.879,0 -199.684,-18.575 -281.415,-55.725c-64.314,-29.234 -120.864,-67.669 -169.644,-115.301c-0.503,1.691 -1.01,3.408 -1.522,5.149c-5.347,18.179 -5.025,37.183 -8.021,59.35c-7.81,57.793 10.704,173.514 221.357,234.189l-648.03,0c213.884,-124.557 252.516,-279.357 333.17,-431.522c-25.917,-44.271 -47.4,-92.514 -64.45,-144.732c-29.721,-91.018 -44.581,-191.325 -44.581,-300.918c0,-167.178 26.934,-322.281 80.803,-465.31c53.868,-143.029 124.454,-267.019 211.757,-371.969c87.304,-104.95 187.146,-186.681 299.526,-245.193c112.38,-58.512 226.153,-87.768 341.32,-87.768c5.798,0 11.576,0.09 17.329,0.27Zm204.959,1608.64l-42.067,-235.19c-6.416,-27.804 -26.734,-48.656 -60.953,-62.558c-34.219,-13.902 -69.508,-20.852 -105.866,-20.852l-426.674,0c-74.855,0 -124.046,27.803 -147.572,83.41l-48.744,110.205c16.052,50.542 37.211,95.511 63.476,134.909c37.15,55.726 84.517,98.914 142.1,129.563c57.584,30.649 127.241,45.973 208.972,45.973c63.156,0 121.203,-7.43 174.143,-22.29c52.939,-14.86 103.557,-40.401 151.852,-76.623c31.219,-23.413 61.661,-52.26 91.333,-86.547Zm-262.017,-1499.12c-102.96,6.388 -191.414,39.912 -265.369,100.572c-82.66,67.8 -149.531,153.71 -200.613,257.732c-51.082,104.021 -88.232,217.33 -111.451,339.926c-23.219,122.597 -34.829,239.621 -34.829,351.072c0,40.565 1.533,79.598 4.597,117.087l607.665,-1166.39Zm14.634,214.884l-346.472,673.696c-17.11,27.803 -29.408,51.329 -36.893,70.578c-7.486,19.248 -11.228,35.288 -11.228,48.121c0,25.664 33.15,38.497 99.45,38.497l362.512,0c62.023,0 93.034,-14.972 93.034,-44.914c0,-10.693 -1.604,-24.06 -4.812,-40.1c-3.208,-16.041 -6.951,-35.824 -11.228,-59.35l-144.363,-686.528Z" style="fill:#fff;fill-rule:nonzero;"/></g></svg>